<svg id="svg559" xmlns="http://www.w3.org/2000/svg" width="132.29mm" height="132.29mm" viewBox="0 0 375 375">
  <defs>
    <style>
      .cls-1 {
        fill-opacity: 0.75;
      }
    </style>
  </defs>
  <title>buegeln_2</title>
  <g>
    <path id="path1649" class="cls-1" d="M183.92,235c0-10.36-7.73-18.75-17.27-18.75s-17.27,8.39-17.27,18.75,7.73,18.75,17.27,18.75,17.27-8.39,17.27-18.75h0Z"/>
    <path d="M166.65,254.25c-9.8,0-17.77-8.64-17.77-19.25s8-19.25,17.77-19.25,17.77,8.64,17.77,19.25S176.45,254.25,166.65,254.25Zm0-37.5c-9.25,0-16.77,8.19-16.77,18.25s7.53,18.25,16.77,18.25,16.77-8.19,16.77-18.25S175.9,216.75,166.65,216.75Z"/>
  </g>
  <g>
    <path id="path1659" class="cls-1" d="M256,235c0-10.36-7.73-18.75-17.27-18.75s-17.27,8.39-17.27,18.75,7.73,18.75,17.27,18.75S256,245.36,256,235h0Z"/>
    <path d="M238.75,254.25c-9.8,0-17.77-8.64-17.77-19.25s8-19.25,17.77-19.25,17.77,8.64,17.77,19.25S248.55,254.25,238.75,254.25Zm0-37.5c-9.25,0-16.77,8.19-16.77,18.25s7.53,18.25,16.77,18.25,16.77-8.19,16.77-18.25S248,216.75,238.75,216.75Z"/>
  </g>
  <path d="M338.32,287.46h-300A6.25,6.25,0,0,1,33,278c2.37-4,58.75-96.78,117.86-96.78H311.44l-15.72-76.7H112.67a6.25,6.25,0,1,1,0-12.5H300.82a6.25,6.25,0,0,1,6.12,5l37.5,183A6.25,6.25,0,0,1,338.32,287.46ZM49.8,275H330.66L314,193.71H150.82c-26.76,0-54.3,24.37-72.7,44.81A341.86,341.86,0,0,0,49.8,275Z"/>
</svg>
