<svg id="svg559" xmlns="http://www.w3.org/2000/svg" width="132.29mm" height="132.29mm" viewBox="0 0 375 375">
  <defs>
    <style>
      .cls-1 {
        fill-opacity: 0.75;
      }
    </style>
  </defs>
  <title>buegeln_3</title>
  <path d="M337.5,287.5H37.5A6.25,6.25,0,0,1,32.14,278c2.37-4,58.75-96.78,117.86-96.78H310.62l-15.72-76.7H111.85a6.25,6.25,0,0,1,0-12.5H300a6.25,6.25,0,0,1,6.12,5L324,184a6.27,6.27,0,0,1,.94,4.6L343.62,280A6.25,6.25,0,0,1,337.5,287.5ZM49,275H329.84l-16.65-81.25H150c-26.76,0-54.3,24.37-72.7,44.81A341.86,341.86,0,0,0,49,275Z"/>
  <g>
    <path id="path1649" class="cls-1" d="M163.52,235.62c0-10.36-7.73-18.75-17.27-18.75S129,225.27,129,235.62s7.73,18.75,17.27,18.75,17.27-8.39,17.27-18.75h0Z"/>
    <path d="M146.25,254.88c-9.8,0-17.77-8.64-17.77-19.25s8-19.25,17.77-19.25S164,225,164,235.63,156.05,254.88,146.25,254.88Zm0-37.5c-9.25,0-16.77,8.19-16.77,18.25s7.53,18.25,16.77,18.25S163,245.69,163,235.63,155.5,217.38,146.25,217.38Z"/>
  </g>
  <g>
    <path id="path1659" class="cls-1" d="M224.38,235.62c0-10.36-7.73-18.75-17.27-18.75s-17.27,8.39-17.27,18.75,7.73,18.75,17.27,18.75,17.27-8.39,17.27-18.75h0Z"/>
    <path d="M207.1,254.88c-9.8,0-17.78-8.64-17.78-19.25s8-19.25,17.78-19.25,17.77,8.64,17.77,19.25S216.9,254.88,207.1,254.88Zm0-37.5c-9.25,0-16.78,8.19-16.78,18.25s7.53,18.25,16.78,18.25,16.77-8.19,16.77-18.25S216.35,217.38,207.1,217.38Z"/>
  </g>
  <g>
    <path id="path1660" class="cls-1" d="M287.27,235.62c0-10.36-7.73-18.75-17.27-18.75s-17.27,8.39-17.27,18.75,7.73,18.75,17.27,18.75,17.27-8.39,17.27-18.75h0Z"/>
    <path d="M270,254.88c-9.8,0-17.77-8.64-17.77-19.25s8-19.25,17.77-19.25,17.77,8.64,17.77,19.25S279.8,254.88,270,254.88Zm0-37.5c-9.25,0-16.77,8.19-16.77,18.25s7.53,18.25,16.77,18.25,16.77-8.19,16.77-18.25S279.25,217.38,270,217.38Z"/>
  </g>
</svg>
