<svg id="svg1" xmlns="http://www.w3.org/2000/svg" width="132.29mm" height="132.29mm" viewBox="0 0 375 375">
  <defs>
    <style>
      .cls-1 {
        fill: #1b0c16;
      }
    </style>
  </defs>
  <title>handwaesche</title>
  <path class="cls-1" d="M338.86,100.75a6.25,6.25,0,0,0-7.38,4.86l-6.9,33.47c-7-.88-10.94-4.37-15.74-8.64-6-5.36-13.51-12-27.61-12s-21.6,6.67-27.61,12c-4.67,4.16-8.53,7.57-15.18,8.56A68.77,68.77,0,0,0,231,118.88c-3.29-6-5-11.64-5.11-17.15,0-.1,0-0.2,0-0.29l-2.32-20.08a3.32,3.32,0,0,0-6.6.76l2.31,19.94c0.2,6.54,2.13,13.08,5.92,20a60.74,60.74,0,0,1,7.06,20.11c0.28,2.17.75,4.3,1.19,6.35,1,4.46,1.89,8.67.87,12.71l0,0.15c-3.47,17-4.84,34.5-6.17,51.39-0.48,6.13-1,12.46-1.57,18.67a3.32,3.32,0,0,0,0,.93,3.18,3.18,0,0,1-1.21,3.45,8.1,8.1,0,0,1-6.18,1.08l-0.32-49.43a3.32,3.32,0,0,0-3.27-3.3h-0.05a3.32,3.32,0,0,0-3.32,3.2L210.1,245.3a3.28,3.28,0,0,0,.07.79,2.83,2.83,0,0,1-1.39,3.41,9.29,9.29,0,0,1-8,.18l-1.63-62.81a3.32,3.32,0,0,0-3.32-3.24h0a3.32,3.32,0,0,0-3.3,3.27l-0.67,46.39a79.77,79.77,0,0,0-.15,10.05,59.85,59.85,0,0,1-.34,11A3.45,3.45,0,0,1,189,257a8.63,8.63,0,0,1-6.67-1.12L178.86,186a3.32,3.32,0,0,0-6.64.25l0.87,35.15c0,3.62.11,7.25,0.25,10.76,0.16,3.9.33,7.94,0.22,11.83a3.17,3.17,0,0,1-2.26,2.91,6.53,6.53,0,0,1-5.48-.32l-4.29-41.85c0-.06,0-0.11,0-0.17a96,96,0,0,1-1.09-16.81q0-.72,0-1.43,0.15-4.16.64-8.37,0-.15,0-0.3c0.08-3,.38-5.92.71-9a86.14,86.14,0,0,0,.69-13.72,3.32,3.32,0,0,0-3.3-3.14h0a5.12,5.12,0,0,0-3.79,1.65c-2.47,2.66-2.3,7.51-1.79,14.07,0.08,1.06.16,2.07,0.19,2.85a37.39,37.39,0,0,0-.24,10.85c0.13,1.7.26,3.36,0.26,4.95q0,0.74,0,1.47a16.15,16.15,0,0,1-.4,2.84,4,4,0,0,1-3.06,3,8.41,8.41,0,0,1-6.75-1.52l-4-40.11h0v-1.57c1.63-4.92,3.48-9.87,5.28-14.67l1.13-3a3.46,3.46,0,0,0,.11-0.35c1.42-5.66,5.26-10.26,9.33-15.12,1.69-2,3.43-4.1,5-6.28a3.31,3.31,0,0,0,.56-1.25l6.36-29.83a3.32,3.32,0,1,0-6.5-1.38l-6.21,29.13c-1.33,1.79-2.78,3.52-4.31,5.35-4.33,5.18-8.82,10.53-10.64,17.58l-1.07,2.86c-0.73,1.94-1.46,3.92-2.19,5.9-7.27-.79-11.27-4.34-16.17-8.7-6-5.36-13.51-12-27.61-12s-21.6,6.67-27.61,12c-4.59,4.08-8.38,7.45-14.82,8.51l-6.66-33.3a6.25,6.25,0,0,0-12.26,2.45l34.4,172a6.25,6.25,0,0,0,6.13,5H302.17a6.25,6.25,0,0,0,6.12-5l35.43-172A6.25,6.25,0,0,0,338.86,100.75ZM297.07,272.61H77L52.7,151.2c9.79-1.75,15.73-7,20.68-11.43,5.56-5,10-8.86,19.3-8.86s13.74,3.91,19.3,8.86c5,4.43,11,9.74,20.84,11.45l4.24,42.62a3.32,3.32,0,0,0,.91,2,14.86,14.86,0,0,0,14,4,11.45,11.45,0,0,0,2.19-.8q0.29,3.24.78,6.41l4.43,43.18a3.32,3.32,0,0,0,1,2.06A12.88,12.88,0,0,0,173.79,253a11.4,11.4,0,0,0,1.72-.87l0.28,5.59a3.32,3.32,0,0,0,1.17,2.37,16.26,16.26,0,0,0,10.25,3.74,12.51,12.51,0,0,0,3.86-.58,10.09,10.09,0,0,0,6.82-7.51l0-.12c4.38,2.08,10.27,2,14.31-.47a9.35,9.35,0,0,0,4.53-10l0.07-2a14.85,14.85,0,0,0,12.55-2,9.76,9.76,0,0,0,3.82-9.47c0.58-6.12,1.06-12.33,1.54-18.35,1.31-16.67,2.66-33.91,6-50.51a27,27,0,0,0,0-11.51c10.06-1.66,16.13-7,21.15-11.5,5.56-5,10-8.86,19.3-8.86s13.74,3.91,19.3,8.86c5.08,4.53,11.24,10,21.53,11.56Z"/>
</svg>
