<svg id="svg559" xmlns="http://www.w3.org/2000/svg" width="132.29mm" height="132.29mm" viewBox="0 0 375 375">
  <title>nicht_buegeln</title>
  <path d="M338.74,287.75h-300a6.25,6.25,0,0,1-5.36-9.47c2.37-4,58.75-96.78,117.86-96.78H311.86l-15.72-76.7H113.09a6.25,6.25,0,0,1,0-12.5H301.24a6.25,6.25,0,0,1,6.12,5l17.83,87a6.27,6.27,0,0,1,.94,4.6l18.73,91.36A6.25,6.25,0,0,1,338.74,287.75ZM50.22,275.25H331.08L314.42,194H151.24c-26.76,0-54.3,24.37-72.7,44.81A341.86,341.86,0,0,0,50.22,275.25Z"/>
  <g id="g1548">
    <path d="M352.85,319.33a6.21,6.21,0,0,1-3.41-1L47.73,121.45A6.24,6.24,0,1,1,54.55,111L356.27,307.86A6.24,6.24,0,0,1,352.85,319.33Z"/>
    <path d="M51.66,319.33a6.24,6.24,0,0,1-3.42-11.47L350,111a6.24,6.24,0,0,1,6.82,10.46L55.07,318.32A6.21,6.21,0,0,1,51.66,319.33Z"/>
  </g>
</svg>
