<svg id="svg1568" xmlns="http://www.w3.org/2000/svg" width="132.29mm" height="132.29mm" viewBox="0 0 375 375">
  <title>nicht_nassreinigen</title>
  <path d="M323.17,287.77L287.73,262.7a127,127,0,0,0,3.58-126.82L323.62,113a6.88,6.88,0,0,0-7.95-11.23L284,124.17a123.66,123.66,0,0,0-12.27-14.89C249.27,86,219.35,73.15,187.5,73.15S125.73,86,103.24,109.28a123.69,123.69,0,0,0-12,14.46l-31-22A6.88,6.88,0,1,0,52.28,113l31.66,22.4a127,127,0,0,0,3.61,127.72L52.73,287.77A6.88,6.88,0,1,0,60.67,299l34.84-24.64q3.64,4.56,7.73,8.81c22.49,23.3,52.42,36.14,84.26,36.14s61.77-12.83,84.26-36.14q4.27-4.43,8.05-9.21l35.41,25A6.88,6.88,0,0,0,323.17,287.77Z"/>
</svg>
