<svg id="svg1" xmlns="http://www.w3.org/2000/svg" width="132.29mm" height="132.29mm" viewBox="0 0 375 375">
  <title>nicht_waschen</title>
  <g id="g1568">
    <path d="M329.36,151.86c-14.11,0-21.6-6.67-27.61-12-5.56-5-10-8.86-19.3-8.86s-13.74,3.91-19.3,8.86c-6,5.36-13.51,12-27.61,12s-21.6-6.67-27.62-12c-5.56-5-10-8.86-19.3-8.86s-13.74,3.91-19.3,8.86c-6,5.36-13.51,12-27.62,12s-21.6-6.67-27.61-12c-5.56-5-10-8.86-19.3-8.86s-13.74,3.91-19.3,8.86c-6,5.36-13.51,12-27.62,12v-12.5c9.35,0,13.74-3.91,19.3-8.86,6-5.36,13.51-12,27.61-12s21.6,6.67,27.62,12c5.56,5,10,8.86,19.3,8.86s13.74-3.91,19.3-8.86c6-5.36,13.51-12,27.61-12s21.6,6.67,27.61,12c5.56,5,10,8.86,19.3,8.86s13.74-3.91,19.3-8.86c6-5.36,13.51-12,27.61-12s21.6,6.67,27.62,12c5.56,5,10,8.86,19.3,8.86v12.5Z"/>
    <path d="M303.68,285.17H73.37a6.25,6.25,0,0,1-6.13-5l-34.4-172a6.25,6.25,0,1,1,12.26-2.45l33.39,167h220.1l34.41-167a6.25,6.25,0,1,1,12.24,2.52l-35.43,172A6.25,6.25,0,0,1,303.68,285.17Z"/>
  </g>
  <g id="g1563">
    <path d="M339.11,287.38a6.23,6.23,0,0,1-2.74-.64l-323.3-158a6.25,6.25,0,1,1,5.49-11.23l323.3,158A6.25,6.25,0,0,1,339.11,287.38Z"/>
    <path d="M37.78,286.74a6.65,6.65,0,0,1-2.9-12.63l324-157a6.65,6.65,0,1,1,5.8,12l-324,157A6.62,6.62,0,0,1,37.78,286.74Z"/>
  </g>
</svg>
