<svg id="svg1568" xmlns="http://www.w3.org/2000/svg" width="132.29mm" height="132.29mm" viewBox="0 0 375 375">
  <title>nicht_chemisch_reinigen</title>
  <path d="M187.5,319.31c-31.85,0-61.77-12.83-84.26-36.14a126.08,126.08,0,0,1,0-173.89C125.73,86,155.65,73.15,187.5,73.15S249.27,86,271.76,109.28a124.4,124.4,0,0,1,34.77,86.95h0a124.4,124.4,0,0,1-34.77,86.94C249.27,306.48,219.35,319.31,187.5,319.31Zm0-232.58c-28.12,0-54.58,11.36-74.49,32a112.49,112.49,0,0,0,0,155c19.91,20.63,46.36,32,74.49,32s54.58-11.36,74.49-32a110.88,110.88,0,0,0,31-77.51h0a110.88,110.88,0,0,0-31-77.51C242.08,98.09,215.63,86.74,187.5,86.74Z"/>
  <g id="g4032">
    <path d="M319.19,300.27a6.85,6.85,0,0,1-4-1.26L52.28,113a6.88,6.88,0,0,1,7.94-11.23l263,186A6.88,6.88,0,0,1,319.19,300.27Z"/>
    <path d="M56.71,300.27a6.88,6.88,0,0,1-4-12.5l263-186A6.88,6.88,0,0,1,323.62,113l-263,186A6.85,6.85,0,0,1,56.71,300.27Z"/>
  </g>
</svg>
