<svg id="svg1568" xmlns="http://www.w3.org/2000/svg" width="132.29mm" height="132.29mm" viewBox="0 0 375 375">
  <title>professionelle_reinigung_ps</title>
  <path d="M187.5,309.07c-31.7,0-61.48-12.77-83.87-36a125.54,125.54,0,0,1,0-173.14C126,76.77,155.8,64,187.5,64S249,76.77,271.37,100A123.86,123.86,0,0,1,306,186.53h0a123.86,123.86,0,0,1-34.62,86.57C249,296.29,219.2,309.07,187.5,309.07Zm0-232.58c-28.27,0-54.87,11.42-74.88,32.15a113,113,0,0,0,0,155.77c20,20.73,46.6,32.15,74.88,32.15s54.87-11.42,74.88-32.15a111.42,111.42,0,0,0,31.12-77.89h0a111.42,111.42,0,0,0-31.12-77.89C242.37,87.91,215.77,76.49,187.5,76.49Z"/>
  <path id="text914" d="M173.09,141.45v44.2h20q11.11,0,17.17-5.75t6.07-16.39q0-10.56-6.07-16.31t-17.17-5.75h-20m-15.91-13.08H193.1q19.77,0,29.86,9t10.16,26.15q0,17.41-10.16,26.31t-29.86,8.9h-20V246H157.18V128.37"/>
  <path d="M299.19,334.47H78.37a6.36,6.36,0,1,1,0-12.71H299.19A6.36,6.36,0,0,1,299.19,334.47Z"/>
</svg>
