<svg id="svg1568" xmlns="http://www.w3.org/2000/svg" width="132.29mm" height="132.29mm" viewBox="0 0 375 375">
  <title>professionelle_reinigung_fs</title>
  <path d="M187.5,309.07c-31.7,0-61.48-12.77-83.87-36a125.54,125.54,0,0,1,0-173.14C126,76.77,155.8,64,187.5,64S249,76.77,271.37,100A123.86,123.86,0,0,1,306,186.53h0a123.86,123.86,0,0,1-34.62,86.57C249,296.29,219.2,309.07,187.5,309.07Zm0-232.58c-28.27,0-54.87,11.42-74.88,32.15a113,113,0,0,0,0,155.77c20,20.73,46.6,32.15,74.88,32.15s54.87-11.42,74.88-32.15a111.42,111.42,0,0,0,31.12-77.89h0a111.42,111.42,0,0,0-31.12-77.89C242.37,87.91,215.77,76.49,187.5,76.49Z"/>
  <path id="text914" d="M160.65,128.37h67.59v13.39H176.56v34.66H223.2v13.39H176.56V246H160.65V128.37"/>
  <path d="M299.19,334.18H78.37a6.36,6.36,0,1,1,0-12.71H299.19A6.36,6.36,0,0,1,299.19,334.18Z"/>
</svg>
