<svg id="svg1568" xmlns="http://www.w3.org/2000/svg" width="132.29mm" height="132.29mm" viewBox="0 0 375 375">
  <title>professionelle_reinigung_a</title>
  <path d="M187.5,309.07c-31.7,0-61.48-12.77-83.87-36a125.54,125.54,0,0,1,0-173.14C126,76.77,155.8,64,187.5,64S249,76.77,271.37,100A123.86,123.86,0,0,1,306,186.53h0a123.86,123.86,0,0,1-34.62,86.57C249,296.29,219.2,309.07,187.5,309.07Zm0-232.58c-28.27,0-54.87,11.42-74.88,32.15a113,113,0,0,0,0,155.77c20,20.73,46.6,32.15,74.88,32.15s54.87-11.42,74.88-32.15a111.42,111.42,0,0,0,31.12-77.89h0a111.42,111.42,0,0,0-31.12-77.89C242.37,87.91,215.77,76.49,187.5,76.49Z"/>
  <path id="path3828" d="M177.08,129L132.14,246h17.44l10.75-29.69h52.41L224.17,246h18.69L195,129H177.08Zm9.5,15.28c6.17,20.63,13.69,38.34,21,58.56h-42.5Z"/>
</svg>
