<svg id="svg1568" xmlns="http://www.w3.org/2000/svg" width="132.29mm" height="132.29mm" viewBox="0 0 375 375">
  <title>trocknen_tropfnass_im_schatten</title>
  <path d="M317.52,317.52h-260v-260h260v260ZM70,305H305V70H70V305Z"/>
  <path d="M187.5,268.75a6.25,6.25,0,0,1-6.25-6.25v-150a6.25,6.25,0,0,1,12.5,0v150A6.25,6.25,0,0,1,187.5,268.75Z"/>
  <path d="M127.5,268.75a6.25,6.25,0,0,1-6.25-6.25v-150a6.25,6.25,0,0,1,12.5,0v150A6.25,6.25,0,0,1,127.5,268.75Z"/>
  <path d="M247.5,268.75a6.25,6.25,0,0,1-6.25-6.25v-150a6.25,6.25,0,0,1,12.5,0v150A6.25,6.25,0,0,1,247.5,268.75Z"/>
  <rect x="34.07" y="128.52" width="201.86" height="12.5" transform="translate(-55.75 135.25) rotate(-45.09)"/>
  <rect x="47.02" y="97.27" width="113.47" height="12.5" transform="translate(-42.81 104.1) rotate(-45.16)"/>
</svg>
