<svg id="svg1568" xmlns="http://www.w3.org/2000/svg" width="132.29mm" height="132.29mm" viewBox="0 0 375 375">
  <title>trocknen_leine_im_schatten</title>
  <path d="M317.52,317.52h-260v-260h260v260ZM70,305H305V70H70V305Z"/>
  <path d="M187.77,119.28c-55.33,0-103.93-20.44-126.86-53.38l8.21-5.71c21.09,30.29,66.54,49.09,118.65,49.09H188c51.64-.05,96.56-18.61,117.23-48.43l8.22,5.7C290.93,99,242.86,119.23,188,119.28h-0.22Z"/>
  <rect x="34.07" y="128.52" width="201.86" height="12.5" transform="translate(-55.75 135.25) rotate(-45.09)"/>
  <rect x="47.02" y="97.27" width="113.47" height="12.5" transform="translate(-42.81 104.1) rotate(-45.16)"/>
</svg>
