<svg id="svg1568" xmlns="http://www.w3.org/2000/svg" width="132.29mm" height="132.29mm" viewBox="0 0 375 375">
  <title>trommeltrocknen_1</title>
  <g>
    <path d="M57.48,57.48v260h260v-260h-260ZM70,305V70H171.55a112.18,112.18,0,0,0-65,33.58,121.27,121.27,0,0,0,0,167.25A112,112,0,0,0,176.8,305H70Zm43.58-41a111.52,111.52,0,0,1,0-153.69c19.76-20.47,46-31.75,73.94-31.75s54.18,11.27,73.94,31.75a109.93,109.93,0,0,1,30.7,76.85h0A109.93,109.93,0,0,1,261.44,264c-19.76,20.47-46,31.75-73.94,31.75S133.32,284.5,113.56,264ZM305,305H198.2a112,112,0,0,0,70.26-34.21,121.27,121.27,0,0,0,0-167.25,112.18,112.18,0,0,0-65-33.58H305V305Z"/>
    <path d="M187.5,168.12a19.38,19.38,0,1,0,19.38,19.38A19.4,19.4,0,0,0,187.5,168.12Z"/>
  </g>
</svg>
