<svg id="svg1568" xmlns="http://www.w3.org/2000/svg" width="132.29mm" height="132.29mm" viewBox="0 0 375 375">
  <title>trommeltrocknen</title>
  <path d="M187.5,305.54c-30.59,0-59.35-12.33-81-34.73a121.27,121.27,0,0,1,0-167.25c21.62-22.39,50.37-34.73,81-34.73s59.35,12.33,81,34.73a119.64,119.64,0,0,1,33.44,83.62h0a119.64,119.64,0,0,1-33.44,83.62C246.85,293.2,218.09,305.54,187.5,305.54Zm0-226.94c-27.92,0-54.18,11.27-73.94,31.75a111.52,111.52,0,0,0,0,153.69c19.76,20.47,46,31.75,73.94,31.75S241.68,284.5,261.44,264a109.93,109.93,0,0,0,30.7-76.85h0a109.93,109.93,0,0,0-30.7-76.85C241.68,89.87,215.42,78.59,187.5,78.59Z"/>
  <path d="M317.52,317.52h-260v-260h260v260ZM70,305H305V70H70V305Z"/>
</svg>
