<svg id="svg1" xmlns="http://www.w3.org/2000/svg" width="132.29mm" height="132.29mm" viewBox="0 0 375 375">
  <title>waschen_60</title>
  <path id="text2897" d="M159.46,204.31a11.27,11.27,0,0,0-9.54,4.75q-3.49,4.75-3.49,13t3.49,13a11.27,11.27,0,0,0,9.54,4.75,11.15,11.15,0,0,0,9.49-4.75q3.53-4.8,3.53-13t-3.53-13a11.15,11.15,0,0,0-9.49-4.75M177.17,172v9.4a32.45,32.45,0,0,0-6.8-2.81,24.51,24.51,0,0,0-6.75-1q-8.83,0-13.51,6.9t-5.3,20.85a18.75,18.75,0,0,1,6.53-6.8,16.27,16.27,0,0,1,8.65-2.4q9.93,0,15.67,7t5.78,19q0,11.75-6,18.86t-16,7.1q-11.43,0-17.48-10.12t-6-29.43q0-18.09,7.42-28.82t19.91-10.78a30.64,30.64,0,0,1,6.75.77,43.56,43.56,0,0,1,7.15,2.3m38.76,5.11q-6.89,0-10.37,7.87t-3.44,23.56q0,15.69,3.44,23.56t10.37,7.82q6.93,0,10.37-7.82t3.49-23.56q0-15.74-3.49-23.56t-10.37-7.87m0-8.18q11.08,0,16.91,10.17t5.87,29.43q0,19.26-5.87,29.43t-16.91,10.12q-11.08,0-17-10.12t-5.83-29.43q0-19.32,5.83-29.43t17-10.17"/>
  <g id="g2806">
    <path d="M327.85,151.8c-14.11,0-21.6-6.67-27.61-12-5.56-5-10-8.86-19.3-8.86s-13.74,3.91-19.3,8.86c-6,5.36-13.51,12-27.61,12s-21.6-6.67-27.61-12c-5.56-5-10-8.86-19.3-8.86s-13.74,3.91-19.3,8.86c-6,5.36-13.51,12-27.62,12s-21.6-6.67-27.61-12c-5.56-5-10-8.86-19.3-8.86s-13.74,3.91-19.3,8.86c-6,5.36-13.51,12-27.62,12V139.3c9.35,0,13.74-3.91,19.3-8.86,6-5.36,13.51-12,27.61-12s21.6,6.67,27.62,12c5.56,5,10,8.86,19.3,8.86s13.74-3.91,19.3-8.86c6-5.36,13.51-12,27.61-12s21.6,6.67,27.62,12c5.56,5,10,8.86,19.3,8.86s13.74-3.91,19.3-8.86c6-5.36,13.51-12,27.61-12s21.6,6.67,27.62,12c5.56,5,10,8.86,19.3,8.86v12.5Z"/>
    <path d="M302.17,285.11H71.85a6.25,6.25,0,0,1-6.13-5l-34.4-172a6.25,6.25,0,0,1,12.26-2.45L77,272.61h220.1l34.41-167a6.25,6.25,0,1,1,12.24,2.52l-35.43,172A6.25,6.25,0,0,1,302.17,285.11Z"/>
  </g>
</svg>
