<svg id="svg1" xmlns="http://www.w3.org/2000/svg" width="132.29mm" height="132.29mm" viewBox="0 0 375 375">
  <title>waschen_95</title>
  <path id="text2897" d="M140.59,252.49v-9.4a32.44,32.44,0,0,0,6.8,2.81,24.82,24.82,0,0,0,6.75,1q8.83,0,13.46-6.85t5.34-20.9a18.51,18.51,0,0,1-6.49,6.75,16.62,16.62,0,0,1-8.7,2.35q-9.89,0-15.67-6.9t-5.74-19q0-11.75,6-18.86t16-7.1q11.43,0,17.44,10.17t6,29.43q0,18-7.42,28.82t-19.87,10.73a31.22,31.22,0,0,1-6.8-.77,43.54,43.54,0,0,1-7.15-2.3m17.75-32.35a11.15,11.15,0,0,0,9.49-4.75q3.53-4.75,3.53-13t-3.53-13a11.11,11.11,0,0,0-9.49-4.8,11.23,11.23,0,0,0-9.54,4.8q-3.49,4.75-3.49,13t3.49,13a11.27,11.27,0,0,0,9.54,4.75M198,177.78h35v8.69H206.15v18.7A20.88,20.88,0,0,1,210,204a18.82,18.82,0,0,1,3.88-.41q11,0,17.48,7t6.45,19q0,12.32-6.62,19.16t-18.67,6.8a45.59,45.59,0,0,1-8.48-.82,60.09,60.09,0,0,1-8.87-2.45V241.91a31.21,31.21,0,0,0,17.17,5q7.64,0,12.1-4.65t4.46-12.62q0-8-4.46-12.62t-12.1-4.65a28.61,28.61,0,0,0-7.15.92,34.29,34.29,0,0,0-7.24,2.86V177.78"/>
  <g id="g2806">
    <path d="M327.85,151.8c-14.11,0-21.6-6.67-27.61-12-5.56-5-10-8.86-19.3-8.86s-13.74,3.91-19.3,8.86c-6,5.36-13.51,12-27.61,12s-21.6-6.67-27.61-12c-5.56-5-10-8.86-19.3-8.86s-13.74,3.91-19.3,8.86c-6,5.36-13.51,12-27.62,12s-21.6-6.67-27.61-12c-5.56-5-10-8.86-19.3-8.86s-13.74,3.91-19.3,8.86c-6,5.36-13.51,12-27.62,12V139.3c9.35,0,13.74-3.91,19.3-8.86,6-5.36,13.51-12,27.61-12s21.6,6.67,27.62,12c5.56,5,10,8.86,19.3,8.86s13.74-3.91,19.3-8.86c6-5.36,13.51-12,27.61-12s21.6,6.67,27.62,12c5.56,5,10,8.86,19.3,8.86s13.74-3.91,19.3-8.86c6-5.36,13.51-12,27.61-12s21.6,6.67,27.62,12c5.56,5,10,8.86,19.3,8.86v12.5Z"/>
    <path d="M302.17,285.11H71.85a6.25,6.25,0,0,1-6.13-5l-34.4-172a6.25,6.25,0,0,1,12.26-2.45L77,272.61h220.1l34.41-167a6.25,6.25,0,1,1,12.24,2.52l-35.43,172A6.25,6.25,0,0,1,302.17,285.11Z"/>
  </g>
</svg>
