<svg id="svg1" xmlns="http://www.w3.org/2000/svg" width="132.29mm" height="132.29mm" viewBox="0 0 375 375">
  <title>waschen_40s</title>
  <path id="text2897" d="M164.83,179.28L142.31,220h22.51V179.28m-2.34-9H173.7V220h9.4v8.58h-9.4v18h-8.87v-18H135.07v-10l27.42-48.34m54.48,6.8q-6.89,0-10.37,7.87t-3.44,23.56q0,15.69,3.44,23.56T217,239.88q6.93,0,10.37-7.82t3.49-23.56q0-15.74-3.49-23.56T217,177.08m0-8.18q11.08,0,16.91,10.17t5.87,29.43q0,19.26-5.87,29.43T217,248.06q-11.08,0-17-10.12t-5.83-29.43q0-19.32,5.83-29.43t17-10.17"/>
  <g id="g2806">
    <path d="M327.85,151.8c-14.11,0-21.6-6.67-27.61-12-5.56-5-10-8.86-19.3-8.86s-13.74,3.91-19.3,8.86c-6,5.36-13.51,12-27.61,12s-21.6-6.67-27.61-12c-5.56-5-10-8.86-19.3-8.86s-13.74,3.91-19.3,8.86c-6,5.36-13.51,12-27.62,12s-21.6-6.67-27.61-12c-5.56-5-10-8.86-19.3-8.86s-13.74,3.91-19.3,8.86c-6,5.36-13.51,12-27.62,12V139.3c9.35,0,13.74-3.91,19.3-8.86,6-5.36,13.51-12,27.61-12s21.6,6.67,27.62,12c5.56,5,10,8.86,19.3,8.86s13.74-3.91,19.3-8.86c6-5.36,13.51-12,27.61-12s21.6,6.67,27.62,12c5.56,5,10,8.86,19.3,8.86s13.74-3.91,19.3-8.86c6-5.36,13.51-12,27.61-12s21.6,6.67,27.62,12c5.56,5,10,8.86,19.3,8.86v12.5Z"/>
    <path d="M302.17,285.11H71.85a6.25,6.25,0,0,1-6.13-5l-34.4-172a6.25,6.25,0,0,1,12.26-2.45L77,272.61h220.1l34.41-167a6.25,6.25,0,1,1,12.24,2.52l-35.43,172A6.25,6.25,0,0,1,302.17,285.11Z"/>
  </g>
  <path d="M297.72,310.66H76.91a6.36,6.36,0,1,1,0-12.71H297.72A6.36,6.36,0,0,1,297.72,310.66Z"/>
</svg>
