<svg id="svg1" xmlns="http://www.w3.org/2000/svg" width="132.29mm" height="132.29mm" viewBox="0 0 375 375">
  <title>waschen_30ss</title>
  <path id="text2897" d="M166.31,205.44a16.74,16.74,0,0,1,10,6.59,20.55,20.55,0,0,1,3.62,12.37q0,11.29-6.71,17.48t-19.07,6.18a39.83,39.83,0,0,1-8.56-1,53.79,53.79,0,0,1-9.05-2.81v-10a28.64,28.64,0,0,0,8.12,3.78,33,33,0,0,0,9.23,1.28q8.39,0,12.76-3.83T171,224.4q0-6.75-4.11-10.53T155.58,210H147.9v-8.48h8q6.58,0,10.07-3t3.49-8.79q0-5.88-3.62-9t-10.29-3.17a36.79,36.79,0,0,0-7.86.92,64,64,0,0,0-9.23,2.86v-9.2a76.74,76.74,0,0,1,9.49-2.45,46.63,46.63,0,0,1,8.39-.82q10.15,0,16.07,5.37t5.92,14.41a18,18,0,0,1-3.13,10.73,16.17,16.17,0,0,1-8.92,6m49.62-28.36q-6.89,0-10.37,7.87t-3.44,23.56q0,15.69,3.44,23.56t10.37,7.82q6.93,0,10.37-7.82t3.49-23.56q0-15.74-3.49-23.56t-10.37-7.87m0-8.18q11.08,0,16.91,10.17t5.87,29.43q0,19.26-5.87,29.43t-16.91,10.12q-11.08,0-17-10.12t-5.83-29.43q0-19.32,5.83-29.43t17-10.17"/>
  <g id="g2806">
    <path d="M327.85,151.8c-14.11,0-21.6-6.67-27.61-12-5.56-5-10-8.86-19.3-8.86s-13.74,3.91-19.3,8.86c-6,5.36-13.51,12-27.61,12s-21.6-6.67-27.61-12c-5.56-5-10-8.86-19.3-8.86s-13.74,3.91-19.3,8.86c-6,5.36-13.51,12-27.62,12s-21.6-6.67-27.61-12c-5.56-5-10-8.86-19.3-8.86s-13.74,3.91-19.3,8.86c-6,5.36-13.51,12-27.62,12V139.3c9.35,0,13.74-3.91,19.3-8.86,6-5.36,13.51-12,27.61-12s21.6,6.67,27.62,12c5.56,5,10,8.86,19.3,8.86s13.74-3.91,19.3-8.86c6-5.36,13.51-12,27.61-12s21.6,6.67,27.62,12c5.56,5,10,8.86,19.3,8.86s13.74-3.91,19.3-8.86c6-5.36,13.51-12,27.61-12s21.6,6.67,27.62,12c5.56,5,10,8.86,19.3,8.86v12.5Z"/>
    <path d="M302.17,285.11H71.85a6.25,6.25,0,0,1-6.13-5l-34.4-172a6.25,6.25,0,0,1,12.26-2.45L77,272.61h220.1l34.41-167a6.25,6.25,0,1,1,12.24,2.52l-35.43,172A6.25,6.25,0,0,1,302.17,285.11Z"/>
  </g>
  <path d="M297.72,310.66H76.91a6.36,6.36,0,1,1,0-12.71H297.72A6.36,6.36,0,0,1,297.72,310.66Z"/>
  <path d="M297.72,333H76.91a6.36,6.36,0,1,1,0-12.71H297.72A6.36,6.36,0,1,1,297.72,333Z"/>
</svg>
